<svg xmlns="http://www.w3.org/2000/svg" xmlns:xlink="http://www.w3.org/1999/xlink" width="1000" zoomAndPan="magnify" viewBox="0 0 750 749.999995" height="1000" preserveAspectRatio="xMidYMid meet" version="1.0"><defs><clipPath id="a32b8a2773"><path d="M 509.796875 398.046875 L 605 398.046875 L 605 480.546875 L 509.796875 480.546875 Z M 509.796875 398.046875 " clip-rule="nonzero"/></clipPath><clipPath id="0d126683f9"><path d="M 580.039062 439.117188 L 675.289062 439.117188 L 675.289062 521.617188 L 580.039062 521.617188 Z M 580.039062 439.117188 " clip-rule="nonzero"/></clipPath><clipPath id="e86c33b7af"><path d="M 439.117188 439.117188 L 534.367188 439.117188 L 534.367188 521.617188 L 439.117188 521.617188 Z M 439.117188 439.117188 " clip-rule="nonzero"/></clipPath><clipPath id="5b480c0948"><path d="M 368.53125 398.046875 L 463.78125 398.046875 L 463.78125 480.546875 L 368.53125 480.546875 Z M 368.53125 398.046875 " clip-rule="nonzero"/></clipPath><clipPath id="5965d104ae"><path d="M 298.253906 439.117188 L 393.503906 439.117188 L 393.503906 521.617188 L 298.253906 521.617188 Z M 298.253906 439.117188 " clip-rule="nonzero"/></clipPath><clipPath id="7fa37d6ce9"><path d="M 227.820312 398.046875 L 323.070312 398.046875 L 323.070312 480.546875 L 227.820312 480.546875 Z M 227.820312 398.046875 " clip-rule="nonzero"/></clipPath><clipPath id="ac198731f4"><path d="M 157.542969 439.117188 L 252.792969 439.117188 L 252.792969 521.617188 L 157.542969 521.617188 Z M 157.542969 439.117188 " clip-rule="nonzero"/></clipPath><clipPath id="c70a1a59d5"><path d="M 87.113281 398.796875 L 182.363281 398.796875 L 182.363281 481.296875 L 87.113281 481.296875 Z M 87.113281 398.796875 " clip-rule="nonzero"/></clipPath></defs><g clip-path="url(#a32b8a2773)"><path fill="#000000" d="M 581.207031 398.046875 L 533.640625 398.046875 L 509.855469 439.296875 L 533.640625 480.546875 L 581.207031 480.546875 L 604.988281 439.296875 Z M 557.421875 463.113281 C 544.289062 463.113281 533.640625 452.449219 533.640625 439.296875 C 533.640625 426.144531 544.289062 415.480469 557.421875 415.480469 C 570.558594 415.480469 581.207031 426.144531 581.207031 439.296875 C 581.207031 452.449219 570.558594 463.113281 557.421875 463.113281 Z M 557.421875 463.113281 " fill-opacity="1" fill-rule="nonzero"/></g><g clip-path="url(#0d126683f9)"><path fill="#000000" d="M 651.449219 439.117188 L 603.882812 439.117188 L 580.097656 480.367188 L 603.882812 521.617188 L 651.449219 521.617188 L 675.230469 480.367188 Z M 627.664062 504.179688 C 614.53125 504.179688 603.882812 493.519531 603.882812 480.367188 C 603.882812 467.214844 614.53125 456.550781 627.664062 456.550781 C 640.800781 456.550781 651.449219 467.214844 651.449219 480.367188 C 651.449219 493.519531 640.800781 504.179688 627.664062 504.179688 Z M 627.664062 504.179688 " fill-opacity="1" fill-rule="nonzero"/></g><g clip-path="url(#e86c33b7af)"><path fill="#000000" d="M 510.527344 439.117188 L 462.960938 439.117188 L 439.175781 480.367188 L 462.960938 521.617188 L 510.527344 521.617188 L 534.308594 480.367188 Z M 486.742188 504.179688 C 473.609375 504.179688 462.960938 493.519531 462.960938 480.367188 C 462.960938 467.214844 473.609375 456.550781 486.742188 456.550781 C 499.878906 456.550781 510.527344 467.214844 510.527344 480.367188 C 510.527344 493.519531 499.878906 504.179688 486.742188 504.179688 Z M 486.742188 504.179688 " fill-opacity="1" fill-rule="nonzero"/></g><g clip-path="url(#5b480c0948)"><path fill="#000000" d="M 439.941406 398.046875 L 392.371094 398.046875 L 368.589844 439.296875 L 392.371094 480.546875 L 439.941406 480.546875 L 463.722656 439.296875 Z M 416.15625 463.113281 C 403.019531 463.113281 392.371094 452.449219 392.371094 439.296875 C 392.371094 426.144531 403.019531 415.480469 416.15625 415.480469 C 429.292969 415.480469 439.941406 426.144531 439.941406 439.296875 C 439.941406 452.449219 429.292969 463.113281 416.15625 463.113281 Z M 416.15625 463.113281 " fill-opacity="1" fill-rule="nonzero"/></g><g clip-path="url(#5965d104ae)"><path fill="#000000" d="M 369.664062 439.117188 L 322.09375 439.117188 L 298.3125 480.367188 L 322.09375 521.617188 L 369.664062 521.617188 L 393.445312 480.367188 Z M 345.878906 504.179688 C 332.742188 504.179688 322.09375 493.519531 322.09375 480.367188 C 322.09375 467.214844 332.742188 456.550781 345.878906 456.550781 C 359.015625 456.550781 369.664062 467.214844 369.664062 480.367188 C 369.664062 493.519531 359.015625 504.179688 345.878906 504.179688 Z M 345.878906 504.179688 " fill-opacity="1" fill-rule="nonzero"/></g><g clip-path="url(#7fa37d6ce9)"><path fill="#000000" d="M 299.230469 398.046875 L 251.664062 398.046875 L 227.878906 439.296875 L 251.664062 480.546875 L 299.230469 480.546875 L 323.011719 439.296875 Z M 275.445312 463.113281 C 262.3125 463.113281 251.664062 452.449219 251.664062 439.296875 C 251.664062 426.144531 262.3125 415.480469 275.445312 415.480469 C 288.582031 415.480469 299.230469 426.144531 299.230469 439.296875 C 299.230469 452.449219 288.582031 463.113281 275.445312 463.113281 Z M 275.445312 463.113281 " fill-opacity="1" fill-rule="nonzero"/></g><g clip-path="url(#ac198731f4)"><path fill="#000000" d="M 228.953125 439.117188 L 181.386719 439.117188 L 157.601562 480.367188 L 181.386719 521.617188 L 228.953125 521.617188 L 252.734375 480.367188 Z M 205.167969 504.179688 C 192.035156 504.179688 181.386719 493.519531 181.386719 480.367188 C 181.386719 467.214844 192.035156 456.550781 205.167969 456.550781 C 218.304688 456.550781 228.953125 467.214844 228.953125 480.367188 C 228.953125 493.519531 218.304688 504.179688 205.167969 504.179688 Z M 205.167969 504.179688 " fill-opacity="1" fill-rule="nonzero"/></g><g clip-path="url(#c70a1a59d5)"><path fill="#000000" d="M 158.519531 398.796875 L 110.953125 398.796875 L 87.167969 440.046875 L 110.953125 481.296875 L 158.519531 481.296875 L 182.304688 440.046875 Z M 134.738281 463.863281 C 121.601562 463.863281 110.953125 453.199219 110.953125 440.046875 C 110.953125 426.894531 121.601562 416.230469 134.738281 416.230469 C 147.871094 416.230469 158.519531 426.894531 158.519531 440.046875 C 158.519531 453.199219 147.871094 463.863281 134.738281 463.863281 Z M 134.738281 463.863281 " fill-opacity="1" fill-rule="nonzero"/></g></svg>